Release name: Repo.Men.UNRATED.NODRM.Audio.AAC-HDLiTE (Kingdom-Release)

Release type: AAC Audio Tracks for Repo Men 2010 UNRATED with no Cinavia DRM protection.

Release info:

Repo.Men.UNRATED.NODRM.Audio.5.1Ch.mp4 :: 336 MB (353,346,883 bytes)

Format : AAC
Format/Info : Advanced Audio Codec
Format version : Version 4
Format profile : LC
Format settings, SBR : No
Codec ID : 40
Duration : 1h 59mn
Bit rate mode : Variable
Bit rate : 392 Kbps
Maximum bit rate : 555 Kbps
Channel(s) : 6 channels
Channel positions : Front: L C R, Rear: L R, LFE
Sampling rate : 48.0 KHz
Stream size : 336 MiB (100%)


Repo.Men.UNRATED.NODRM.Audio.2Ch.mp4 - 110 MB (116,043,573 bytes)

Format : AAC
Format/Info : Advanced Audio Codec
Format version : Version 4
Format profile : LC
Format settings, SBR : No
Codec ID : 40
Duration : 1h 59mn
Bit rate mode : Variable
Bit rate : 128 Kbps
Maximum bit rate : 176 Kbps
Channel(s) : 2 channels
Channel positions : L R
Sampling rate : 48.0 KHz
Stream size : 109 MiB (99%)


Remux your BRRips and enjoy ;)
 
http://www.imdb.com/title/tt1053424/